<svg width="24" height="25" viewBox="0 0 24 25" fill="none" xmlns="http://www.w3.org/2000/svg">
<rect x="2" y="2.07812" width="20" height="20" rx="5" fill="white"/>
<path d="M14.7413 5.59409C14.8297 6.186 15.0988 6.7444 15.5204 7.19878C16.1842 7.92192 17.0098 8.15743 17.5209 8.23317C17.78 8.27156 18 8.47478 18 8.72224V10.0667C18 10.3058 17.7945 10.5015 17.5421 10.4825C16.821 10.4281 16.1192 10.243 15.4746 9.93886C15.1401 9.781 14.7092 9.9944 14.7092 10.3474V12.1964V14.0454C14.7092 16.3204 12.7577 18.1621 10.3546 18.1621C8.11225 18.1621 6 16.4504 6 14.0454C6 11.7013 8.08171 9.83851 10.5508 9.93876C10.7807 9.9481 10.9515 10.1343 10.9515 10.3515V11.6664C10.9515 11.9583 10.647 12.1654 10.3377 12.1674C9.27241 12.1744 8.37245 12.9999 8.37245 14.0454C8.37245 15.0854 9.27551 15.9232 10.3622 15.9232C10.8762 15.9235 11.3702 15.7354 11.74 15.3985C12.1098 15.0617 12.3265 14.6024 12.3444 14.1177V5.59544C12.3444 5.35612 12.55 5.16211 12.8036 5.16211H14.25C14.5036 5.16211 14.7059 5.35709 14.7413 5.59409Z" fill="#1F1F1F"/>
</svg>
