<svg width="165" height="169" viewBox="0 0 165 169" fill="none" xmlns="http://www.w3.org/2000/svg">
<path d="M164.25 168.5H3.35059L5.03711 168.247L5.04883 168.245L9.06055 167.242L9.07031 167.24L12.0791 166.237L12.0986 166.229L15.5986 164.729L15.6113 164.725L15.624 164.717L19.124 162.717L19.1348 162.711L19.1455 162.703L19.7686 162.259C21.4537 161.055 23.0492 159.731 24.543 158.298L25.1768 157.677L27.1865 155.667L27.1953 155.656L29.1953 153.156L29.2061 153.143L29.2148 153.129L32.2148 148.129L32.2227 148.114L32.2295 148.099L33.7295 144.599L33.7373 144.579L34.7422 141.564L34.7451 141.549L35.2451 139.049L35.2471 139.04L35.248 139.031L35.75 135.016V101.51L36.248 97.0303C36.4673 95.2525 36.6512 94.0756 36.9297 92.625L37.2451 91.0508V91.0488L37.7422 88.5615C38.2294 86.649 38.6123 85.376 39.1445 83.7979L39.7363 82.083L39.7373 82.0791L40.7324 79.0928L41.7305 76.5977L45.2148 69.6289L46.709 67.1387L49.7002 63.1504L49.6992 63.1494L51.6924 60.6602L54.1875 57.666L57.1699 54.6836L60.6504 51.7002L64.6504 48.7002L69.127 45.7158L75.0996 42.7295C83.8277 38.9281 88.8818 37.5507 98.5332 36.248L98.5322 36.2471L105.504 35.75H124.5C128.879 35.75 133.247 35.3167 137.539 34.4561L138.397 34.2773L138.553 34.2441L138.562 34.2422H138.562L138.564 34.2412C138.567 34.2406 138.571 34.2404 138.575 34.2393C138.584 34.237 138.597 34.233 138.614 34.2285C138.649 34.2196 138.699 34.2066 138.764 34.1895C138.893 34.155 139.08 34.104 139.311 34.0391C139.771 33.9092 140.405 33.7219 141.101 33.4922C142.478 33.0374 144.128 32.4049 145.132 31.7109L145.133 31.7119L149.133 29.2119L149.146 29.2031L149.16 29.1924L152.16 26.6924L152.169 26.6846L153.677 25.1768C154.558 24.2955 155.383 23.3603 156.148 22.377L156.473 21.9531L156.7 21.6504L158.2 19.6504L160.208 16.6387L160.217 16.626L160.224 16.6113L162.224 12.6113L162.229 12.6025L162.232 12.5928C162.819 11.1251 163.288 9.61306 163.633 8.07129L163.773 7.40918L164.245 5.04883L164.247 5.03711L164.249 5.02441L164.25 5.01465V168.5Z" fill="white" stroke="white" stroke-width="0.5"/>
</svg>
