<svg width="24" height="25" viewBox="0 0 24 25" fill="none" xmlns="http://www.w3.org/2000/svg">
<path d="M22 16.2681C22 19.9081 19.83 22.0781 16.19 22.0781H15C14.45 22.0781 14 21.6281 14 21.0781V15.3081C14 15.0381 14.22 14.8081 14.49 14.8081L16.25 14.7781C16.39 14.7681 16.51 14.6681 16.54 14.5281L16.89 12.6181C16.92 12.4381 16.78 12.2681 16.59 12.2681L14.46 12.2981C14.18 12.2981 13.96 12.0781 13.95 11.8081L13.91 9.35812C13.91 9.19812 14.04 9.05814 14.21 9.05814L16.61 9.01813C16.78 9.01813 16.91 8.88814 16.91 8.71814L16.87 6.31812C16.87 6.14812 16.74 6.01813 16.57 6.01813L13.87 6.05814C12.21 6.08814 10.89 7.44812 10.92 9.10812L10.97 11.8581C10.98 12.1381 10.76 12.3581 10.48 12.3681L9.28 12.3881C9.11 12.3881 8.98001 12.5181 8.98001 12.6881L9.01001 14.5881C9.01001 14.7581 9.14 14.8881 9.31 14.8881L10.51 14.8681C10.79 14.8681 11.01 15.0881 11.02 15.3581L11.11 21.0581C11.12 21.6181 10.67 22.0781 10.11 22.0781H7.81C4.17 22.0781 2 19.9081 2 16.2581V7.88812C2 4.24812 4.17 2.07812 7.81 2.07812H16.19C19.83 2.07812 22 4.24812 22 7.88812V16.2681Z" fill="white"/>
</svg>
