<svg width="128" height="128" viewBox="0 0 128 128" fill="none" xmlns="http://www.w3.org/2000/svg">
<path d="M84.8537 65.9733H109.867C109.44 90.88 104.534 94.9866 89.2271 104.053C87.4671 105.12 86.8804 107.36 87.9471 109.173C89.0137 110.933 91.2537 111.52 93.0671 110.453C111.094 99.7866 117.387 93.28 117.387 62.24V33.4933C117.387 24.3733 109.974 17.0133 100.907 17.0133H84.9071C75.5204 17.0133 68.4271 24.1066 68.4271 33.4933V49.4933C68.3737 58.88 75.4671 65.9733 84.8537 65.9733Z" fill="#F4F1EE" fill-opacity="0.3"/>
<path d="M27.147 65.9733H52.1603C51.7337 90.88 46.827 94.9866 31.5203 104.053C29.7603 105.12 29.1737 107.36 30.2403 109.173C31.307 110.933 33.547 111.52 35.3603 110.453C53.387 99.7866 59.6803 93.28 59.6803 62.24V33.4933C59.6803 24.3733 52.267 17.0133 43.2003 17.0133H27.2003C17.7603 17.0133 10.667 24.1066 10.667 33.4933V49.4933C10.667 58.88 17.7603 65.9733 27.147 65.9733Z" fill="#F4F1EE" fill-opacity="0.3"/>
</svg>
