<svg width="169" height="33" viewBox="0 0 169 33" fill="none" xmlns="http://www.w3.org/2000/svg">
<path d="M23.8912 19.5934C23.5459 19.928 23.3872 20.412 23.4659 20.8867L24.6512 27.4467C24.7512 28.0027 24.5165 28.5654 24.0512 28.8867C23.5952 29.22 22.9885 29.26 22.4912 28.9934L16.5858 25.9134C16.3805 25.804 16.1525 25.7454 15.9192 25.7387H15.5578C15.4325 25.7574 15.3099 25.7974 15.1979 25.8587L9.29118 28.9534C8.99918 29.1 8.66852 29.152 8.34452 29.1C7.55518 28.9507 7.02852 28.1987 7.15785 27.4054L8.34452 20.8454C8.42318 20.3667 8.26452 19.88 7.91918 19.54L3.10452 14.8734C2.70185 14.4827 2.56185 13.896 2.74585 13.3667C2.92452 12.8387 3.38052 12.4534 3.93118 12.3667L10.5578 11.4054C11.0619 11.3534 11.5045 11.0467 11.7312 10.5934L14.6512 4.60671C14.7205 4.47337 14.8099 4.35071 14.9179 4.24671L15.0378 4.15337C15.1005 4.08404 15.1725 4.02671 15.2525 3.98004L15.3979 3.92671L15.6245 3.83337H16.1859C16.6872 3.88537 17.1285 4.18537 17.3592 4.63337L20.3179 10.5934C20.5312 11.0294 20.9459 11.332 21.4245 11.4054L28.0512 12.3667C28.6112 12.4467 29.0792 12.8334 29.2645 13.3667C29.4392 13.9014 29.2885 14.488 28.8779 14.8734L23.8912 19.5934Z" fill="#FFB000"/>
<path d="M58.1412 19.5934C57.7959 19.928 57.6372 20.412 57.7159 20.8867L58.9012 27.4467C59.0012 28.0027 58.7665 28.5654 58.3012 28.8867C57.8452 29.22 57.2385 29.26 56.7412 28.9934L50.8358 25.9134C50.6305 25.804 50.4025 25.7454 50.1692 25.7387H49.8078C49.6825 25.7574 49.5599 25.7974 49.4479 25.8587L43.5412 28.9534C43.2492 29.1 42.9185 29.152 42.5945 29.1C41.8052 28.9507 41.2785 28.1987 41.4079 27.4054L42.5945 20.8454C42.6732 20.3667 42.5145 19.88 42.1692 19.54L37.3545 14.8734C36.9519 14.4827 36.8119 13.896 36.9959 13.3667C37.1745 12.8387 37.6305 12.4534 38.1812 12.3667L44.8078 11.4054C45.3119 11.3534 45.7545 11.0467 45.9812 10.5934L48.9012 4.60671C48.9705 4.47337 49.0599 4.35071 49.1679 4.24671L49.2878 4.15337C49.3505 4.08404 49.4225 4.02671 49.5025 3.98004L49.6479 3.92671L49.8745 3.83337H50.4359C50.9372 3.88537 51.3785 4.18537 51.6092 4.63337L54.5679 10.5934C54.7812 11.0294 55.1959 11.332 55.6745 11.4054L62.3012 12.3667C62.8612 12.4467 63.3292 12.8334 63.5145 13.3667C63.6892 13.9014 63.5385 14.488 63.1279 14.8734L58.1412 19.5934Z" fill="#FFB000"/>
<path d="M92.3912 19.5934C92.0459 19.928 91.8872 20.412 91.9659 20.8867L93.1512 27.4467C93.2512 28.0027 93.0165 28.5654 92.5512 28.8867C92.0952 29.22 91.4885 29.26 90.9912 28.9934L85.0858 25.9134C84.8805 25.804 84.6525 25.7454 84.4192 25.7387H84.0578C83.9325 25.7574 83.8099 25.7974 83.6979 25.8587L77.7912 28.9534C77.4992 29.1 77.1685 29.152 76.8445 29.1C76.0552 28.9507 75.5285 28.1987 75.6579 27.4054L76.8445 20.8454C76.9232 20.3667 76.7645 19.88 76.4192 19.54L71.6045 14.8734C71.2019 14.4827 71.0619 13.896 71.2459 13.3667C71.4245 12.8387 71.8805 12.4534 72.4312 12.3667L79.0578 11.4054C79.5619 11.3534 80.0045 11.0467 80.2312 10.5934L83.1512 4.60671C83.2205 4.47337 83.3099 4.35071 83.4179 4.24671L83.5378 4.15337C83.6005 4.08404 83.6725 4.02671 83.7525 3.98004L83.8979 3.92671L84.1245 3.83337H84.6859C85.1872 3.88537 85.6285 4.18537 85.8592 4.63337L88.8179 10.5934C89.0312 11.0294 89.4459 11.332 89.9245 11.4054L96.5512 12.3667C97.1112 12.4467 97.5792 12.8334 97.7645 13.3667C97.9392 13.9014 97.7885 14.488 97.3779 14.8734L92.3912 19.5934Z" fill="#FFB000"/>
<path d="M126.641 19.5934C126.296 19.928 126.137 20.412 126.216 20.8867L127.401 27.4467C127.501 28.0027 127.267 28.5654 126.801 28.8867C126.345 29.22 125.739 29.26 125.241 28.9934L119.336 25.9134C119.131 25.804 118.903 25.7454 118.669 25.7387H118.308C118.183 25.7574 118.06 25.7974 117.948 25.8587L112.041 28.9534C111.749 29.1 111.419 29.152 111.095 29.1C110.305 28.9507 109.779 28.1987 109.908 27.4054L111.095 20.8454C111.173 20.3667 111.015 19.88 110.669 19.54L105.855 14.8734C105.452 14.4827 105.312 13.896 105.496 13.3667C105.675 12.8387 106.131 12.4534 106.681 12.3667L113.308 11.4054C113.812 11.3534 114.255 11.0467 114.481 10.5934L117.401 4.60671C117.471 4.47337 117.56 4.35071 117.668 4.24671L117.788 4.15337C117.851 4.08404 117.923 4.02671 118.003 3.98004L118.148 3.92671L118.375 3.83337H118.936C119.437 3.88537 119.879 4.18537 120.109 4.63337L123.068 10.5934C123.281 11.0294 123.696 11.332 124.175 11.4054L130.801 12.3667C131.361 12.4467 131.829 12.8334 132.015 13.3667C132.189 13.9014 132.039 14.488 131.628 14.8734L126.641 19.5934Z" fill="#FFB000"/>
<path d="M160.891 19.5934C160.546 19.928 160.387 20.412 160.466 20.8867L161.651 27.4467C161.751 28.0027 161.517 28.5654 161.051 28.8867C160.595 29.22 159.989 29.26 159.491 28.9934L153.586 25.9134C153.381 25.804 153.153 25.7454 152.919 25.7387H152.558C152.433 25.7574 152.31 25.7974 152.198 25.8587L146.291 28.9534C145.999 29.1 145.669 29.152 145.345 29.1C144.555 28.9507 144.029 28.1987 144.158 27.4054L145.345 20.8454C145.423 20.3667 145.265 19.88 144.919 19.54L140.105 14.8734C139.702 14.4827 139.562 13.896 139.746 13.3667C139.925 12.8387 140.381 12.4534 140.931 12.3667L147.558 11.4054C148.062 11.3534 148.505 11.0467 148.731 10.5934L151.651 4.60671C151.721 4.47337 151.81 4.35071 151.918 4.24671L152.038 4.15337C152.101 4.08404 152.173 4.02671 152.253 3.98004L152.398 3.92671L152.625 3.83337H153.186C153.687 3.88537 154.129 4.18537 154.359 4.63337L157.318 10.5934C157.531 11.0294 157.946 11.332 158.425 11.4054L165.051 12.3667C165.611 12.4467 166.079 12.8334 166.265 13.3667C166.439 13.9014 166.289 14.488 165.878 14.8734L160.891 19.5934Z" fill="#FFB000"/>
</svg>
