<svg width="24" height="25" viewBox="0 0 24 25" fill="none" xmlns="http://www.w3.org/2000/svg">
<path d="M16.19 2.07812H7.81C4.17 2.07812 2 4.24812 2 7.88812V16.2581C2 19.9081 4.17 22.0781 7.81 22.0781H16.18C19.82 22.0781 21.99 19.9081 21.99 16.2681V7.88812C22 4.24812 19.83 2.07812 16.19 2.07812ZM12 15.9581C9.86 15.9581 8.12 14.2181 8.12 12.0781C8.12 9.93812 9.86 8.19812 12 8.19812C14.14 8.19812 15.88 9.93812 15.88 12.0781C15.88 14.2181 14.14 15.9581 12 15.9581ZM17.92 6.95813C17.87 7.07812 17.8 7.18813 17.71 7.28813C17.61 7.37813 17.5 7.44812 17.38 7.49813C17.26 7.54813 17.13 7.57812 17 7.57812C16.73 7.57812 16.48 7.47813 16.29 7.28813C16.2 7.18813 16.13 7.07812 16.08 6.95813C16.03 6.83813 16 6.70813 16 6.57812C16 6.44812 16.03 6.31812 16.08 6.19812C16.13 6.06812 16.2 5.96812 16.29 5.86812C16.52 5.63812 16.87 5.52813 17.19 5.59812C17.26 5.60812 17.32 5.62812 17.38 5.65812C17.44 5.67812 17.5 5.70813 17.56 5.74813C17.61 5.77813 17.66 5.82812 17.71 5.86812C17.8 5.96812 17.87 6.06812 17.92 6.19812C17.97 6.31812 18 6.44812 18 6.57812C18 6.70813 17.97 6.83813 17.92 6.95813Z" fill="white"/>
</svg>
